<!-- Generated by IcoMoon.io -->
<svg version="1.1" xmlns="http://www.w3.org/2000/svg" width="1024" height="1024" viewBox="0 0 1024 1024">
<title></title>
<g id="icomoon-ignore">
</g>
<path fill="none"  stroke-width="96" stroke-miterlimit="4" stroke-linecap="round" stroke-linejoin="round" d="M128 256h768"></path>
<path fill="none"  stroke-width="96" stroke-miterlimit="4" stroke-linecap="round" stroke-linejoin="round" d="M810.643 256.003v597.335c0 22.63-8.986 44.333-24.992 60.339-16 16-37.709 24.992-60.339 24.992h-426.666c-22.632 0-44.337-8.992-60.34-24.992-16.003-16.006-24.993-37.709-24.993-60.339v-597.335M341.313 256.003v-85.333c0-22.632 8.99-44.337 24.993-60.34s37.708-24.994 60.34-24.994h170.667c22.632 0 44.339 8.991 60.339 24.994 16.006 16.003 24.992 37.708 24.992 60.34v85.333"></path>
<path fill="none"  stroke-width="96" stroke-miterlimit="4" stroke-linecap="round" stroke-linejoin="round" d="M426.687 469.336v256.002"></path>
<path fill="none"  stroke-width="96" stroke-miterlimit="4" stroke-linecap="round" stroke-linejoin="round" d="M597.313 469.336v256.002"></path>
</svg>
