<svg width="25.310547" height="24.418091" viewBox="0 0 25.3105 24.4181" fill="none" xmlns="http://www.w3.org/2000/svg" xmlns:xlink="http://www.w3.org/1999/xlink">
	<desc>
			Created with Pixso.
	</desc>
	<defs/>
	<path id="Vector" d="M25.1445 22.2692C23.5391 19.4492 21.0293 17.2521 18.0215 16.0312C19.5176 14.9097 20.623 13.3461 21.1797 11.5618C21.7363 9.77759 21.7188 7.86316 21.127 6.08984C20.5371 4.31653 19.4023 2.77405 17.8867 1.68115C16.3691 0.588135 14.5469 0 12.6777 0C10.8086 0 8.98828 0.588135 7.4707 1.68115C5.95508 2.77405 4.82031 4.31653 4.22852 6.08984C3.63867 7.86316 3.61914 9.77759 4.17773 11.5618C4.73438 13.3461 5.83984 14.9097 7.33398 16.0312C4.32812 17.2521 1.81836 19.4492 0.212891 22.2692C0.113281 22.4292 0.046875 22.6077 0.0175781 22.7939C-0.0117188 22.9802 -0.00390625 23.1704 0.0429688 23.3533C0.0878906 23.5361 0.169922 23.7079 0.283203 23.8584C0.396484 24.0089 0.539062 24.1351 0.703125 24.2294C0.865234 24.3237 1.04688 24.3843 1.23438 24.4073C1.41992 24.4305 1.61133 24.4159 1.79102 24.3641C1.97266 24.3125 2.14258 24.2249 2.28906 24.1066C2.43555 23.9882 2.55664 23.8416 2.64648 23.6754C4.76953 20.0051 8.51953 17.816 12.6777 17.816C16.8379 17.816 20.5879 20.0062 22.7109 23.6754C22.9043 23.9854 23.209 24.2083 23.5645 24.2969C23.918 24.3855 24.293 24.333 24.6094 24.1504C24.9238 23.9678 25.1582 23.6693 25.2578 23.3182C25.3574 22.9673 25.3164 22.5909 25.1445 22.2692ZM6.58398 8.90979C6.58398 7.70459 6.94141 6.52637 7.61133 5.52429C8.28125 4.52209 9.23242 3.74109 10.3457 3.27991C11.4609 2.8186 12.6855 2.698 13.8672 2.93311C15.0488 3.16821 16.1348 3.74866 16.9883 4.60083C17.8398 5.453 18.4199 6.53882 18.6543 7.72095C18.8906 8.90295 18.7695 10.1283 18.3086 11.2417C17.8477 12.3552 17.0664 13.3069 16.0645 13.9766C15.0625 14.6461 13.8828 15.0035 12.6777 15.0035C11.0625 15.0017 9.51367 14.359 8.37109 13.2167C7.22852 12.0742 6.58594 10.5254 6.58398 8.90979Z" fill="#0EF387" fill-opacity="1.000000" fill-rule="nonzero"/>
</svg>
